<svg xmlns="http://www.w3.org/2000/svg" width="154" height="154" viewBox="0 0 154 154"><g transform="translate(-187 -635)"><circle cx="77" cy="77" r="77" transform="translate(187 635)" fill="#fad249"/><g transform="translate(183.038 666.253)"><path d="M121.318,139.453l-11.365-4.69a4.607,4.607,0,0,1-2.081-2.366V128.6c0-.245.026-.49.03-.619,1.948-2.565,8.3-11.606,8.3-20.282,0-11.987-7.536-20.043-18.753-20.043S78.7,95.714,78.7,107.7c0,8.675,6.356,17.716,8.255,20.176a3.36,3.36,0,0,1,.079.725v3.772a4.561,4.561,0,0,1-2.066,2.381l-11.391,4.7a12.08,12.08,0,0,0-6.757,8.708l-1.355,5.5,31.987,5.923,31.988-5.923-1.353-5.486A12.1,12.1,0,0,0,121.318,139.453Zm-27.259,1.195a2.168,2.168,0,0,0,1.247,1.96v9.252L86.784,140.74l.708-.295c2.749-1.275,5.716-4.715,5.716-8.049V128.6a9.651,9.651,0,0,0-.518-3.123l-.208-.558-.311-.388c-.073-.092-7.3-9.257-7.3-16.832,0-10.182,6.5-13.809,12.579-13.809s12.579,3.627,12.579,13.809c0,7.516-7,16.453-7.294,16.829l-.358.47-.163.474a9.641,9.641,0,0,0-.52,3.128V132.4c0,3.333,2.968,6.773,5.727,8.054l.7.288L99.6,151.861v-9.253a2.167,2.167,0,0,0-.9-4.128H96.206A2.16,2.16,0,0,0,94.059,140.648Z" transform="translate(-17.449 -70.564)" fill="#fff"/><path d="M213.921,142.035a2.429,2.429,0,0,0-1.1.263,8.552,8.552,0,0,0-3.616,3.171,2.462,2.462,0,0,0-.155,1.877,2.42,2.42,0,0,0,1.213,1.439,2.479,2.479,0,0,0,1.126.276,2.41,2.41,0,0,0,2.152-1.3,4.674,4.674,0,0,1,1.487-1.083,2.454,2.454,0,0,0-1.1-4.646Z" transform="translate(-137.82 -117.807)" fill="#fff"/><path d="M201.463,197.429a2.453,2.453,0,1,0-4.906,0c0,3.056,1.117,6.819,3.321,11.19a2.453,2.453,0,1,0,4.381-2.208C202.43,202.783,201.463,199.677,201.463,197.429Z" transform="translate(-127.596 -162.557)" fill="#fff"/><path d="M246.082,12.548a2.876,2.876,0,0,0,2.873-2.872v-6.8a2.873,2.873,0,0,0-5.745,0v6.8A2.876,2.876,0,0,0,246.082,12.548Z" transform="translate(-166.079)" fill="#fff"/><path d="M107.262,68.368a2.873,2.873,0,1,0,4.062-4.063l-4.81-4.81a2.873,2.873,0,1,0-4.062,4.063Z" transform="translate(-47.338 -45.18)" fill="#fff"/><path d="M368.3,321.283a2.873,2.873,0,1,0-4.062,4.064l4.81,4.81a2.873,2.873,0,1,0,4.062-4.063Z" transform="translate(-268.217 -266.368)" fill="#fff"/><path d="M55.51,203.125a2.876,2.876,0,0,0-2.872-2.872h-6.8a2.872,2.872,0,1,0,0,5.745l6.8,0A2.876,2.876,0,0,0,55.51,203.125Z" transform="translate(0 -165.968)" fill="#fff"/><path d="M422.855,200.254h-6.8a2.873,2.873,0,0,0,0,5.747h6.8a2.873,2.873,0,0,0,0-5.747Z" transform="translate(-308.68 -165.969)" fill="#fff"/><path d="M104.483,331a2.854,2.854,0,0,0,2.031-.842l4.812-4.808a2.882,2.882,0,0,0,0-4.065,2.875,2.875,0,0,0-4.063,0l-4.811,4.81A2.873,2.873,0,0,0,104.483,331Z" transform="translate(-47.337 -266.367)" fill="#fff"/><path d="M366.276,69.217a2.858,2.858,0,0,0,2.031-.841l4.812-4.81a2.873,2.873,0,0,0-4.063-4.063l-4.811,4.81a2.872,2.872,0,0,0,2.031,4.9Z" transform="translate(-268.223 -45.187)" fill="#fff"/></g></g></svg>