<svg xmlns="http://www.w3.org/2000/svg" width="154" height="154" viewBox="0 0 154 154"><g transform="translate(-941 -635)"><circle cx="77" cy="77" r="77" transform="translate(941 635)" fill="#fad249"/><g transform="translate(964 612.979)"><path d="M101.795,85.852,87.108,98.646l-.061,1.288a10.42,10.42,0,0,1-.7,2.83c-.226.56-.485,1.121-.757,1.681L68.938,90.076a3.047,3.047,0,0,0-2.361-.711,105.146,105.146,0,0,0-24.544,6.692,7.188,7.188,0,0,1-2.726.667,2.258,2.258,0,0,1-1.014-.2,1.657,1.657,0,0,1-.787-.818A3.762,3.762,0,0,1,37.127,94a4.127,4.127,0,0,1,.711-2.361c.47-.606,1.046-1.439,1.832-2.514a61.979,61.979,0,0,1,4.695-5.663A30.587,30.587,0,0,1,50.8,78.145a15.771,15.771,0,0,1,8.342-2.317,31.531,31.531,0,0,1,4.528.41,29.8,29.8,0,0,0,4.39.485,7.911,7.911,0,0,0,3.074-.545h.015A26.893,26.893,0,0,0,76.1,73.239a82.847,82.847,0,0,0,6.722-5.572c.364-.318.7-.636,1-.924l-4.133-4.4c-.909.847-2.091,1.907-3.362,2.983-1.3,1.121-2.71,2.256-4.043,3.2a18.936,18.936,0,0,1-3.467,2.058,1.993,1.993,0,0,1-.757.092,27.149,27.149,0,0,1-3.5-.41,36.112,36.112,0,0,0-5.421-.485,21.465,21.465,0,0,0-5.86.788,21.887,21.887,0,0,0-5.86-.788,35.872,35.872,0,0,0-5.406.485,27.067,27.067,0,0,1-3.512.41,1.956,1.956,0,0,1-.742-.092,19.8,19.8,0,0,1-3.725-2.24,73.772,73.772,0,0,1-6.207-5.149c-.47-.424-.895-.818-1.273-1.165l-4.148,4.4c.893.834,2.058,1.909,3.361,3.044,1.454,1.241,3.074,2.573,4.71,3.769a26.859,26.859,0,0,0,4.95,2.938,7.963,7.963,0,0,0,3.074.545,27.95,27.95,0,0,0,4.406-.485c.105-.015.2-.015.287-.031a48.292,48.292,0,0,0-5.254,5.345c-1.257,1.468-2.3,2.846-3.149,3.982-.818,1.121-1.454,2.029-1.742,2.392A9.951,9.951,0,0,0,31.07,94a9.468,9.468,0,0,0,1.922,5.845,7.56,7.56,0,0,0,2.681,2.15,8.563,8.563,0,0,0,3.633.788,13.03,13.03,0,0,0,5.088-1.152,94.751,94.751,0,0,1,15.731-4.921c2.181-.484,4-.818,5.27-1.029.243-.046.439-.075.636-.106l19.033,16.4v.016h.015a1.217,1.217,0,0,1-.167.483,4.143,4.143,0,0,1-3.437,2,4.083,4.083,0,0,0-.742.09,6.864,6.864,0,0,1-1.286-.393,13.084,13.084,0,0,1-3.407-2.044,12.27,12.27,0,0,1-1.014-.893l-.257-.243-.061-.06v-.015a2.309,2.309,0,0,0-1.681-.728,2.263,2.263,0,0,0-1.665,3.8,18.223,18.223,0,0,0,3.087,2.62,17.27,17.27,0,0,0,3.348,1.8c.287.106.6.228.922.318a3.185,3.185,0,0,0,.333.575h-.015l.015.016a2.328,2.328,0,0,1,.121.893,4.7,4.7,0,0,1-.726,2.528,1.883,1.883,0,0,1-.636.621,1.729,1.729,0,0,1-.849.211h-.151a.667.667,0,0,0-.243.015h-.015a9.377,9.377,0,0,1-5.148-1.771,13.081,13.081,0,0,1-1.59-1.257,4.309,4.309,0,0,1-.393-.393l-.092-.09-.015-.016v-.015a2.27,2.27,0,0,0-3.421,2.984,15.559,15.559,0,0,0,2.953,2.543,14.984,14.984,0,0,0,4.633,2.15.666.666,0,0,0-.061.151,3.252,3.252,0,0,1-1.514,1.635,7.3,7.3,0,0,1-1.393.652,2.258,2.258,0,0,1-.711.1,7.853,7.853,0,0,1-1.468-.211,3.568,3.568,0,0,0-.41-.046.93.93,0,0,1-.151-.061,14.332,14.332,0,0,1-2.348-1.544c-.333-.257-.62-.514-.818-.682l-.226-.211-.046-.046H64.32a2.265,2.265,0,1,0-3.135,3.271,21.475,21.475,0,0,0,2.346,1.922c.228.182.5.349.757.514a4.05,4.05,0,0,1-1.136,1.257,3.455,3.455,0,0,1-2.1.621,6.683,6.683,0,0,1-2.543-.56,9.678,9.678,0,0,1-.878-.454,7.938,7.938,0,0,0,.257-1.968,7.528,7.528,0,0,0-6.905-7.525c0-.077.016-.167.016-.243a8.441,8.441,0,0,0-1.242-4.392,8.288,8.288,0,0,0-7.025-3.921h-.046c-.121,0-.228.015-.333.015a8.106,8.106,0,0,0-1.182-3.407,8.293,8.293,0,0,0-5.572-3.785,8.415,8.415,0,0,0-1.242-4.3,8.324,8.324,0,0,0-11.462-2.664l-2.907,1.8c-.075-.151-.166-.318-.226-.469a10.111,10.111,0,0,1-.863-3.24l-.061-1.288L4.148,85.852,0,90.258,13.008,101.6a17.87,17.87,0,0,0,1.15,3.875c.318.788.682,1.53,1.044,2.227a8.268,8.268,0,0,0,5.6,12.461,8.308,8.308,0,0,0,8.313,8.238,2.3,2.3,0,0,0,.318-.031,8.482,8.482,0,0,0,1.2,3.422,8.326,8.326,0,0,0,7.071,3.923,7.6,7.6,0,0,0,.818-.061,7.715,7.715,0,0,0,1.075,3.073,7.587,7.587,0,0,0,10.432,2.438l3.785-2.346a13.383,13.383,0,0,0,2.348,1.242,12.43,12.43,0,0,0,4.89,1.044,9.547,9.547,0,0,0,5.588-1.711,10.27,10.27,0,0,0,2.815-3.089c.121,0,.228.015.349.015a8.246,8.246,0,0,0,2.5-.378,12.937,12.937,0,0,0,2.605-1.165,9.534,9.534,0,0,0,4.1-4.557c.136-.349.243-.667.333-.97a7.208,7.208,0,0,0,1.485-.636,8.521,8.521,0,0,0,3.436-3.892,11,11,0,0,0,.968-4.511,4.321,4.321,0,0,0-.03-.439,10.185,10.185,0,0,0,2.922-1.8,9.366,9.366,0,0,0,2.12-2.633,7.147,7.147,0,0,0,.893-3.377,6.008,6.008,0,0,0-.529-2.468,4.142,4.142,0,0,0-.439-.728A28.243,28.243,0,0,0,92,104.931a17.515,17.515,0,0,0,.939-3.317l13.006-11.356ZM23.636,113.833l-.136.09a2.3,2.3,0,0,1-1.2.334,2.231,2.231,0,0,1-1.924-1.06,2.2,2.2,0,0,1-.347-1.2,2.3,2.3,0,0,1,1.075-1.924l4.982-3.1a2.351,2.351,0,0,1,1.2-.333,2.241,2.241,0,0,1,1.922,1.06l2.574-1.591-2.574,1.606a2.14,2.14,0,0,1,.349,1.181,2.331,2.331,0,0,1-.545,1.454l-4.285,2.665A8.231,8.231,0,0,0,23.636,113.833Zm6.677,8.161a2.191,2.191,0,0,1-1.2.349,2.246,2.246,0,0,1-1.924-1.075,2.154,2.154,0,0,1-.347-1.182,2.327,2.327,0,0,1,.545-1.454l4.284-2.664a8.446,8.446,0,0,0,1.076-.818l.151-.092a2.221,2.221,0,0,1,1.2-.347,2.256,2.256,0,0,1,1.922,1.075,2.14,2.14,0,0,1,.349,1.182,2.3,2.3,0,0,1-1.075,1.937Zm13.566,4.225-5,3.1a2.267,2.267,0,0,1-3.1-.726,2.247,2.247,0,0,1,.726-3.12l4.981-3.1a2.311,2.311,0,0,1,1.2-.333,2.247,2.247,0,0,1,1.922,1.06,2.3,2.3,0,0,1,.334,1.2A2.246,2.246,0,0,1,43.88,126.218Zm7.238,7.131-4.285,2.664a1.4,1.4,0,0,1-.8.228,1.5,1.5,0,0,1-1.286-.711,1.527,1.527,0,0,1-.228-.8,1.472,1.472,0,0,1,.711-1.272v-.015l4.285-2.666a1.625,1.625,0,0,1,.8-.226,1.53,1.53,0,0,1,1.286.726,1.39,1.39,0,0,1,.228.788A1.482,1.482,0,0,1,51.118,133.35Z" transform="translate(0 0)" fill="#fff"/></g></g></svg>