<svg xmlns="http://www.w3.org/2000/svg" width="154" height="154" viewBox="0 0 154 154"><g transform="translate(-564 -635)"><circle cx="77" cy="77" r="77" transform="translate(564 635)" fill="#fad249"/><g transform="translate(601 663.74)"><path d="M180.085,155.9l7.952,6.133a5,5,0,0,0,9.955-.616c0-.106-.024-.207-.032-.312l11.652-13.785a1.941,1.941,0,1,0-2.873-2.555L195.29,157a4.832,4.832,0,0,0-4.761.078l-7.486-5.213a2.528,2.528,0,0,0-2.96,4.038Z" transform="translate(-151.329 -112.029)" fill="#fff"/><path d="M68.629,22.412A38.044,38.044,0,0,0,41.652,11.239v9.248a28.917,28.917,0,1,1-27.893,21.35l3.748,2.334a1.785,1.785,0,0,0,1.6.17,1.37,1.37,0,0,0,.864-1.18l1.614-21.137a1.81,1.81,0,0,0-2.641-1.642L.682,31.148A1.367,1.367,0,0,0,0,32.441,1.772,1.772,0,0,0,.861,33.8l4.785,2.98A38.15,38.15,0,1,0,68.629,22.412Z" transform="translate(0 0)" fill="#fff"/></g></g></svg>